<?xml version="1.0" encoding="UTF-8" standalone="no"?>
<svg
   height="617.37085"
   viewBox="0 0 494.81677 578.78517"
   width="527.80457"
   version="1.1"
   id="svg23"
   sodipodi:docname="godot_logo.svg"
   inkscape:version="1.4 (e7c3feb100, 2024-10-09)"
   xmlns:inkscape="http://www.inkscape.org/namespaces/inkscape"
   xmlns:sodipodi="http://sodipodi.sourceforge.net/DTD/sodipodi-0.dtd"
   xmlns="http://www.w3.org/2000/svg"
   xmlns:svg="http://www.w3.org/2000/svg">
  <defs
     id="defs23" />
  <sodipodi:namedview
     id="namedview23"
     pagecolor="#505050"
     bordercolor="#eeeeee"
     borderopacity="1"
     inkscape:showpageshadow="0"
     inkscape:pageopacity="0"
     inkscape:pagecheckerboard="0"
     inkscape:deskcolor="#d1d1d1"
     inkscape:zoom="1.118968"
     inkscape:cx="163.09671"
     inkscape:cy="398.13471"
     inkscape:window-width="1882"
     inkscape:window-height="1080"
     inkscape:window-x="38"
     inkscape:window-y="0"
     inkscape:window-maximized="0"
     inkscape:current-layer="svg23" />
  <g
     fill="#eeeeee"
     transform="matrix(1.25,0,0,-1.25,-514.43319,852.49284)"
     id="g5">
    <path
       d="m 0,0 c -3.611,0 -6.636,-1.659 -9.09,-4.967 -2.441,-3.311 -3.668,-7.958 -3.668,-13.938 0,-5.993 1.166,-10.581 3.503,-13.778 2.333,-3.207 5.398,-4.804 9.2,-4.804 3.8,0 6.887,1.617 9.258,4.862 2.371,3.233 3.559,7.861 3.559,13.886 0,6.02 -1.227,10.654 -3.673,13.89 C 6.646,-1.617 3.616,0 0,0 m -0.055,-59.493 c -10.573,0 -19.195,3.46 -25.859,10.379 -6.655,6.925 -9.984,17.03 -9.984,30.314 0,13.292 3.367,23.356 10.101,30.209 6.736,6.844 15.431,10.269 26.082,10.269 10.649,0 19.251,-3.363 25.794,-10.109 6.555,-6.733 9.827,-16.94 9.827,-30.591 0,-13.661 -3.348,-23.822 -10.05,-30.49 -6.702,-6.654 -15.333,-9.981 -25.911,-9.981"
       transform="matrix(1.1310535,0,0,1.1310535,531.44953,355.31567)"
       id="path1" />
    <path
       d="m 0,0 v -33.768 c 0,-1.577 0.116,-2.571 0.342,-2.988 0.224,-0.415 0.903,-0.623 2.029,-0.623 4.144,0 7.283,1.548 9.429,4.634 2.151,3.083 3.215,8.216 3.215,15.405 0,7.192 -1.113,11.878 -3.325,14.055 C 9.467,-1.102 5.946,0 1.129,0 Z m -21.675,-52.392 v 67.735 c 0,1.883 0.468,3.369 1.413,4.471 0.939,1.085 2.161,1.636 3.671,1.636 H 2.263 c 11.965,0 21.053,-3.018 27.257,-9.04 6.215,-6.02 9.322,-15.499 9.322,-28.447 0,-27.7 -11.821,-41.547 -35.456,-41.547 h -19.302 c -3.836,0 -5.759,1.727 -5.759,5.192"
       transform="matrix(1.1310535,0,0,1.1310535,607.8515,354.43097)"
       id="path2" />
    <path
       d="m 0,0 c -3.612,0 -6.645,-1.659 -9.095,-4.967 -2.44,-3.311 -3.662,-7.958 -3.662,-13.938 0,-5.993 1.169,-10.581 3.499,-13.778 2.33,-3.207 5.398,-4.804 9.2,-4.804 3.801,0 6.89,1.617 9.258,4.862 2.372,3.233 3.56,7.861 3.56,13.886 0,6.02 -1.225,10.654 -3.671,13.89 C 6.642,-1.617 3.616,0 0,0 m -0.058,-59.493 c -10.577,0 -19.193,3.46 -25.851,10.379 -6.663,6.925 -9.993,17.03 -9.993,30.314 0,13.292 3.367,23.356 10.1,30.209 6.741,6.844 15.431,10.269 26.086,10.269 10.651,0 19.246,-3.363 25.797,-10.109 6.55,-6.733 9.822,-16.94 9.822,-30.591 0,-13.661 -3.349,-23.822 -10.05,-30.49 -6.699,-6.654 -15.338,-9.981 -25.911,-9.981"
       transform="matrix(1.1310535,0,0,1.1310535,700.81066,355.31567)"
       id="path3" />
    <path
       d="m 0,0 c 0,-1.496 -3.721,-2.255 -11.176,-2.255 -7.448,0 -11.18,0.759 -11.18,2.255 v 56.681 h -13.545 c -1.281,0 -2.185,1.727 -2.71,5.198 -0.226,1.652 -0.334,3.343 -0.334,5.077 0,1.724 0.108,3.422 0.334,5.077 0.525,3.462 1.429,5.202 2.71,5.202 h 49.112 c 1.279,0 2.179,-1.74 2.712,-5.202 0.221,-1.655 0.335,-3.353 0.335,-5.077 0,-1.734 -0.114,-3.425 -0.335,-5.077 C 15.39,58.408 14.49,56.681 13.211,56.681 H 0 Z"
       transform="matrix(1.1310535,0,0,1.1310535,789.01132,291.33514)"
       id="path4" />
    <path
       d="m 0,0 c -6.078,0.094 -13.034,-1.173 -13.034,-1.173 v -11.863 h 6.995 l -0.078,-5.288 c 0,-1.959 -1.942,-2.943 -5.815,-2.943 -3.878,0 -7.303,1.642 -10.274,4.917 -2.978,3.279 -4.459,8.072 -4.459,14.388 0,6.329 1.447,10.995 4.345,14.006 2.892,3.008 6.683,4.517 11.346,4.517 1.959,0 3.987,-0.316 6.096,-0.961 2.11,-0.639 3.519,-1.238 4.238,-1.799 0.713,-0.577 1.391,-0.85 2.032,-0.85 0.638,0 1.671,0.746 3.1,2.255 1.431,1.505 2.713,3.786 3.844,6.827 1.126,3.057 1.69,5.4 1.69,7.062 0,1.649 -0.036,2.786 -0.109,3.386 -1.581,1.73 -4.499,3.102 -8.755,4.122 -4.248,1.017 -9.011,1.522 -14.28,1.522 -11.594,0 -20.66,-3.65 -27.207,-10.95 -6.552,-7.303 -9.822,-16.783 -9.822,-28.452 0,-13.701 3.347,-24.087 10.041,-31.162 6.706,-7.074 15.51,-10.607 26.425,-10.607 5.87,0 11.08,0.505 15.632,1.522 4.557,1.013 7.586,2.053 9.093,3.105 l 0.452,35.33 C 11.496,-1.036 6.078,-0.104 0,0"
       transform="matrix(1.1310535,0,0,1.1310535,468.26549,336.71278)"
       id="path5" />
  </g>
  <g
     fill="#dddddd"
     transform="matrix(1.25,0,0,-1.25,-437.9327,852.49284)"
     id="g15">
    <path
       d="m 0,0 c -0.624,-1.28 -1.771,-2.454 -3.449,-3.516 -1.676,-1.069 -3.805,-1.6 -6.391,-1.6 -3.412,0 -6.156,1.075 -8.24,3.249 -2.076,2.157 -3.116,5.266 -3.116,9.323 v 10.116 c 0,3.969 0.98,7.013 2.946,9.138 1.962,2.108 4.59,3.177 7.872,3.177 3.208,0 5.695,-0.844 7.455,-2.513 1.755,-1.675 2.677,-4.015 2.757,-7.003 L -0.21,20.238 h -2.619 c -0.094,2.29 -0.759,4.057 -2.01,5.305 -1.244,1.238 -3.095,1.864 -5.539,1.864 -2.473,0 -4.432,-0.837 -5.866,-2.516 -1.43,-1.675 -2.143,-4.103 -2.143,-7.293 V 7.424 c 0,-3.308 0.771,-5.83 2.311,-7.567 1.54,-1.724 3.616,-2.588 6.236,-2.588 1.913,0 3.451,0.339 4.602,1.033 1.155,0.684 1.956,1.519 2.409,2.51 v 8.861 h -7.06 v 2.463 H 0 Z"
       transform="matrix(1.1310535,0,0,1.1310535,441.34721,235.75121)"
       id="path6" />
    <path
       d="m 0,0 c 1.553,0 2.936,0.44 4.144,1.336 1.21,0.9 2.058,2.037 2.561,3.422 v 5.468 H 2.213 c -1.91,0 -3.44,-0.541 -4.585,-1.623 C -3.52,7.528 -4.088,6.185 -4.088,4.588 -4.088,3.239 -3.733,2.131 -3.014,1.277 -2.296,0.42 -1.292,0 0,0 M 7.124,-2.04 C 6.984,-1.164 6.875,-0.453 6.806,0.104 6.739,0.671 6.705,1.235 6.705,1.808 5.938,0.554 4.948,-0.486 3.725,-1.301 2.504,-2.122 1.146,-2.529 -0.35,-2.529 c -2.092,0 -3.701,0.648 -4.84,1.946 -1.132,1.303 -1.704,3.059 -1.704,5.276 0,2.343 0.823,4.223 2.473,5.618 1.649,1.395 3.89,2.092 6.709,2.092 h 4.417 v 3.106 c 0,1.786 -0.456,3.193 -1.351,4.21 -0.914,1.004 -2.17,1.512 -3.791,1.512 -1.508,0 -2.752,-0.479 -3.728,-1.45 -0.973,-0.965 -1.456,-2.144 -1.456,-3.549 l -2.623,0.023 -0.046,0.137 c -0.074,1.906 0.647,3.591 2.168,5.084 1.515,1.489 3.459,2.229 5.825,2.229 2.338,0 4.22,-0.711 5.657,-2.128 1.429,-1.431 2.146,-3.471 2.146,-6.124 V 3.057 c 0,-0.903 0.042,-1.78 0.121,-2.617 0.081,-0.848 0.212,-1.665 0.417,-2.48 z"
       transform="matrix(1.1310535,0,0,1.1310535,456.01527,232.82495)"
       id="path7" />
    <path
       d="m 0,0 0.24,-3.923 c 0.664,1.404 1.554,2.486 2.657,3.255 1.107,0.759 2.41,1.138 3.906,1.138 1.527,0 2.814,-0.444 3.852,-1.343 1.039,-0.896 1.805,-2.252 2.292,-4.074 0.623,1.682 1.505,3.011 2.65,3.973 1.145,0.964 2.534,1.444 4.143,1.444 2.217,0 3.937,-0.897 5.156,-2.692 1.224,-1.799 1.834,-4.559 1.834,-8.288 v -14.765 h -2.823 v 14.814 c 0,3.1 -0.429,5.283 -1.263,6.538 -0.839,1.257 -2.042,1.89 -3.598,1.89 -1.637,0 -2.915,-0.691 -3.834,-2.096 -0.914,-1.405 -1.478,-3.161 -1.683,-5.282 v -0.655 -15.209 H 10.72 v 14.798 c 0,3.027 -0.424,5.194 -1.292,6.488 -0.864,1.294 -2.066,1.936 -3.609,1.936 -1.475,0 -2.668,-0.45 -3.562,-1.342 -0.9,-0.897 -1.54,-2.125 -1.928,-3.683 V -25.275 H -2.477 V 0 Z"
       transform="matrix(1.1310535,0,0,1.1310535,476.7303,259.10521)"
       id="path8" />
    <path
       d="m 0,0 c -1.758,0 -3.202,-0.802 -4.334,-2.402 -1.133,-1.606 -1.718,-3.585 -1.765,-5.944 h 11.66 v 1.082 c 0,2.086 -0.489,3.823 -1.469,5.201 C 3.106,-0.684 1.745,0 0,0 m 0.397,-23.76 c -2.725,0 -4.954,1.026 -6.685,3.073 -1.726,2.043 -2.591,4.657 -2.591,7.841 v 4.197 c 0,3.19 0.867,5.85 2.602,7.965 1.739,2.105 3.828,3.158 6.277,3.158 2.648,0 4.699,-0.939 6.164,-2.823 1.468,-1.887 2.201,-4.422 2.201,-7.603 v -2.773 H -6.099 v -2.102 c 0,-2.447 0.586,-4.484 1.752,-6.11 1.168,-1.63 2.755,-2.438 4.744,-2.438 1.382,0 2.585,0.244 3.588,0.724 1.003,0.491 1.863,1.179 2.578,2.082 l 1.149,-1.988 C 6.949,-21.525 5.96,-22.307 4.753,-22.887 3.549,-23.464 2.094,-23.76 0.397,-23.76"
       transform="matrix(1.1310535,0,0,1.1310535,522.82277,256.83868)"
       id="path9" />
    <path
       d="M 0,0 C -1.763,0 -3.21,-0.802 -4.341,-2.402 -5.467,-4.008 -6.053,-5.987 -6.104,-8.346 H 5.559 v 1.082 c 0,2.086 -0.488,3.823 -1.474,5.201 C 3.104,-0.684 1.744,0 0,0 m 0.394,-23.76 c -2.726,0 -4.951,1.026 -6.679,3.073 -1.733,2.043 -2.6,4.657 -2.6,7.841 v 4.197 c 0,3.19 0.871,5.85 2.602,7.965 1.744,2.105 3.834,3.158 6.283,3.158 2.643,0 4.703,-0.939 6.164,-2.823 1.463,-1.887 2.197,-4.422 2.197,-7.603 v -2.773 H -6.104 v -2.102 c 0,-2.447 0.587,-4.484 1.76,-6.11 1.162,-1.63 2.742,-2.438 4.738,-2.438 1.387,0 2.585,0.244 3.585,0.724 1.007,0.491 1.866,1.179 2.589,2.082 l 1.141,-1.988 c -0.764,-0.968 -1.75,-1.75 -2.959,-2.33 -1.204,-0.577 -2.658,-0.873 -4.356,-0.873"
       transform="matrix(1.1310535,0,0,1.1310535,558.0805,256.83868)"
       id="path10" />
    <path
       d="m 0,0 0.23,-4.178 c 0.674,1.483 1.564,2.634 2.682,3.435 1.108,0.805 2.413,1.213 3.914,1.213 2.258,0 3.988,-0.835 5.189,-2.513 1.214,-1.675 1.815,-4.279 1.815,-7.812 v -15.42 h -2.825 v 15.394 c 0,2.888 -0.423,4.905 -1.264,6.075 -0.836,1.17 -2.065,1.753 -3.665,1.753 -1.435,0 -2.638,-0.466 -3.603,-1.414 C 1.504,-4.406 0.782,-5.657 0.301,-7.234 V -25.275 H -2.504 V 0 Z"
       transform="matrix(1.1310535,0,0,1.1310535,575.91679,259.10521)"
       id="path11" />
    <path
       d="m 0,0 c 0,-2.565 0.486,-4.605 1.472,-6.123 0.974,-1.532 2.457,-2.288 4.436,-2.288 1.356,0 2.498,0.361 3.435,1.101 0.934,0.74 1.672,1.77 2.218,3.077 v 12.52 c -0.525,1.346 -1.246,2.434 -2.157,3.272 -0.91,0.824 -2.062,1.238 -3.448,1.238 -1.975,0 -3.468,-0.86 -4.46,-2.587 C 0.497,8.48 0,6.224 0,3.454 Z m -2.833,3.454 c 0,3.582 0.723,6.459 2.177,8.627 1.442,2.157 3.448,3.239 6.004,3.239 1.419,0 2.664,-0.346 3.728,-1.04 1.066,-0.681 1.947,-1.678 2.654,-2.946 l 0.274,3.516 h 2.381 v -25.298 c 0,-3.239 -0.751,-5.749 -2.26,-7.525 -1.511,-1.769 -3.657,-2.665 -6.428,-2.665 -0.996,0 -2.067,0.156 -3.212,0.459 -1.147,0.303 -2.162,0.701 -3.052,1.2 l 0.776,2.463 c 0.759,-0.492 1.608,-0.873 2.548,-1.141 0.932,-0.277 1.895,-0.41 2.894,-0.41 2.009,0 3.498,0.645 4.46,1.932 0.966,1.304 1.45,3.19 1.45,5.687 v 3.057 c -0.717,-1.138 -1.597,-2.011 -2.64,-2.614 -1.039,-0.606 -2.253,-0.909 -3.622,-0.909 -2.539,0 -4.53,0.994 -5.968,2.982 C -2.11,-5.948 -2.833,-3.301 -2.833,0 Z"
       transform="matrix(1.1310535,0,0,1.1310535,600.8685,242.30884)"
       id="path12" />
    <path
       d="m 627.82321,230.5176 h -3.20089 v 28.58738 h 3.20089 z m 0,36.72644 h -3.20089 v 4.50385 h 3.20089 z"
       id="path13" />
    <path
       d="m 0,0 0.23,-4.178 c 0.676,1.483 1.562,2.634 2.678,3.435 1.115,0.805 2.422,1.213 3.916,1.213 2.258,0 3.995,-0.835 5.199,-2.513 1.211,-1.675 1.807,-4.279 1.807,-7.812 v -15.42 h -2.825 v 15.394 c 0,2.888 -0.422,4.905 -1.261,6.075 -0.843,1.17 -2.063,1.753 -3.668,1.753 -1.434,0 -2.635,-0.466 -3.599,-1.414 C 1.51,-4.406 0.785,-5.657 0.306,-7.234 V -25.275 H -2.503 V 0 Z"
       transform="matrix(1.1310535,0,0,1.1310535,638.15379,259.10521)"
       id="path14" />
    <path
       d="M 0,0 C -1.763,0 -3.208,-0.802 -4.334,-2.402 -5.463,-4.008 -6.052,-5.987 -6.102,-8.346 H 5.56 v 1.082 c 0,2.086 -0.486,3.823 -1.47,5.201 C 3.109,-0.684 1.747,0 0,0 m 0.401,-23.76 c -2.733,0 -4.958,1.026 -6.681,3.073 -1.73,2.043 -2.595,4.657 -2.595,7.841 v 4.197 c 0,3.19 0.865,5.85 2.6,7.965 1.739,2.105 3.831,3.158 6.275,3.158 2.646,0 4.706,-0.939 6.172,-2.823 1.462,-1.887 2.195,-4.422 2.195,-7.603 v -2.773 H -6.102 v -2.102 c 0,-2.447 0.59,-4.484 1.757,-6.11 1.166,-1.63 2.748,-2.438 4.746,-2.438 1.382,0 2.579,0.244 3.578,0.724 1.012,0.491 1.869,1.179 2.591,2.082 l 1.147,-1.988 c -0.769,-0.968 -1.755,-1.75 -2.962,-2.33 -1.203,-0.577 -2.658,-0.873 -4.354,-0.873"
       transform="matrix(1.1310535,0,0,1.1310535,669.70883,256.83868)"
       id="path15" />
  </g>
  <g
     stroke-width="1.41382"
     transform="translate(44.812356,-45.891698)"
     id="g23">
    <path
       d="m 340.91387,248.41524 c 0,0 -0.45949,-2.81915 -0.72812,-2.7937 l -51.15472,4.93563 c -4.07038,0.39304 -7.23167,3.63917 -7.51726,7.71803 l -1.40534,20.14265 -39.57556,2.82339 -2.69191,-18.2552 c -0.59946,-4.06049 -4.14531,-7.1214 -8.24962,-7.1214 H 175.6005 c -4.1029,0 -7.64875,3.06091 -8.24821,7.1214 l -2.69332,18.2552 -39.57556,-2.82339 -1.40533,-20.14265 c -0.2856,-4.08028 -3.44689,-7.3264 -7.51727,-7.71944 l -51.180171,-4.93422 c -0.264383,-0.0255 -0.458076,2.79653 -0.72246,2.79653 l -0.06928,11.07018 43.344801,6.98991 1.41947,20.32221 c 0.28701,4.11421 3.60665,7.44092 7.72368,7.7364 l 54.50406,3.888 c 0.20642,0.0141 0.41001,0.0226 0.6136,0.0226 4.09582,0 7.63602,-3.06232 8.23548,-7.12281 l 2.76967,-18.78397 h 39.59394 l 2.76967,18.78397 c 0.59804,4.05907 4.14248,7.1214 8.24396,7.1214 0.20076,0 0.40153,-0.007 0.59805,-0.0212 l 54.51112,-3.888 c 4.11562,-0.29548 7.43668,-3.62219 7.72368,-7.7364 l 1.41806,-20.32221 43.32642,-7.02101 z"
       fill="#ffffff"
       id="path16" />
    <path
       d="m 64.257603,164.94208 v 67.1761 8.53238 7.76468 c 0.152692,10e-4 0.305384,0.007 0.456663,0.0212 l 51.174514,4.93422 c 2.6806,0.25873 4.78153,2.41621 4.96815,5.10247 l 1.57782,22.58996 44.63986,3.18533 3.07505,-20.84955 c 0.3987,-2.70322 2.71736,-4.7066 5.45168,-4.7066 h 53.99084 c 2.73291,0 5.05157,2.00338 5.45026,4.7066 l 3.07505,20.84955 44.64127,-3.18533 1.57641,-22.58996 c 0.18804,-2.68626 2.28756,-4.84233 4.96815,-5.10247 l 51.15472,-4.93422 c 0.15128,-0.0141 0.30256,-0.0198 0.45525,-0.0212 v -6.66049 l 0.0212,-0.007 v -76.8056 c 7.20611,-9.07172 14.02963,-19.07834 19.2576,-27.49732 -7.98948,-13.60092 -17.77875,-25.75551 -28.24241,-37.01656 -9.70443,4.88474 -19.13035,10.41842 -28.03316,16.30697 -4.45493,-4.42808 -9.47257,-8.05028 -14.40114,-11.83648 -4.84232,-3.88941 -10.29965,-6.741079 -15.47564,-10.063549 1.54107,-11.475951 2.30311,-22.773762 2.60991,-34.564995 -13.35491,-6.721286 -27.59629,-11.177637 -42.00167,-14.378518 -5.75141,9.666266 -11.01081,20.134166 -15.59157,30.367373 -5.43189,-0.90767 -10.88922,-1.244159 -16.35362,-1.309194 v -0.0085 c -0.0382,0 -0.0735,0.0085 -0.10604,0.0085 -0.0339,0 -0.0693,-0.0085 -0.10321,-0.0085 v 0.0085 c -5.4743,0.06503 -10.92739,0.401524 -16.36069,1.309194 -4.57794,-10.233207 -9.83451,-20.701107 -15.5944,-30.367373 -14.39831,3.200881 -28.6411,7.657232 -41.9946,14.378518 0.30538,11.791233 1.06743,23.089044 2.61273,34.564995 -5.18588,3.32247 -10.63614,6.174139 -15.47988,10.063549 -4.9215,3.7862 -9.94762,7.4084 -14.40397,11.83648 -8.902802,-5.88855 -18.325891,-11.42223 -28.033158,-16.30697 -10.463659,11.26105 -20.247272,23.41564 -28.239579,37.01656 6.281105,9.85952 13.018384,19.76924 19.2576,27.49732 z"
       fill="#478cbf"
       id="path17" />
    <path
       d="m 295.00412,263.89328 -1.58489,22.71014 c -0.19086,2.73715 -2.36814,4.91584 -5.10529,5.11236 l -54.50971,3.88941 c -0.1329,0.01 -0.2658,0.0141 -0.39728,0.0141 -2.70888,0 -5.04592,-1.98783 -5.44603,-4.70801 l -3.12595,-21.19877 h -44.47726 l -3.12595,21.19877 c -0.41991,2.85308 -2.97043,4.90453 -5.84331,4.69387 l -54.50971,-3.88941 c -2.73715,-0.19652 -4.91442,-2.37521 -5.10529,-5.11236 l -1.58489,-22.71014 -46.015498,-4.43656 c 0.02121,4.94553 0.08483,10.36328 0.08483,11.44202 0,48.59854 61.649488,71.95763 138.244428,72.22625 h 0.0933 0.0947 c 76.59494,-0.26862 138.22322,-23.62771 138.22322,-72.22625 0,-1.09853 0.0664,-6.49366 0.0891,-11.44202 z"
       fill="#478cbf"
       id="path18" />
    <path
       d="m 160.89242,198.8266 c 0,17.03932 -13.80592,30.84242 -30.83959,30.84242 -17.02518,0 -30.835345,-13.8031 -30.835345,-30.84242 0,-17.02801 13.810165,-30.82404 30.835345,-30.82404 17.03367,0 30.83959,13.79603 30.83959,30.82404"
       fill="#ffffff"
       id="path19" />
    <path
       d="m 153.47185,200.6558 c 0,11.30205 -9.16012,20.46217 -20.47065,20.46217 -11.30488,0 -20.47066,-9.16012 -20.47066,-20.46217 0,-11.30205 9.16578,-20.47065 20.47066,-20.47065 11.31053,0 20.47065,9.1686 20.47065,20.47065"
       fill="#414042"
       id="path20" />
    <path
       d="m 202.59379,232.47488 c -5.48278,0 -9.92641,-4.04069 -9.92641,-9.02157 v -28.39085 c 0,-4.97664 4.44363,-9.02157 9.92641,-9.02157 5.48278,0 9.93631,4.04493 9.93631,9.02157 v 28.39085 c 0,4.98088 -4.45353,9.02157 -9.93631,9.02157"
       fill="#ffffff"
       id="path21" />
    <path
       d="m 244.30027,198.8266 c 0,17.03932 13.80592,30.84242 30.84242,30.84242 17.02376,0 30.83251,-13.8031 30.83251,-30.84242 0,-17.02801 -13.80875,-30.82404 -30.83251,-30.82404 -17.0365,0 -30.84242,13.79603 -30.84242,30.82404"
       fill="#ffffff"
       id="path22" />
    <path
       d="m 251.72267,200.6558 c 0,11.30205 9.15729,20.46217 20.45934,20.46217 11.31337,0 20.47066,-9.16012 20.47066,-20.46217 0,-11.30205 -9.15729,-20.47065 -20.47066,-20.47065 -11.30205,0 -20.45934,9.1686 -20.45934,20.47065"
       fill="#414042"
       id="path23" />
  </g>
</svg>
